<?xml version="1.0" encoding="UTF-8" standalone="no"?>
<!DOCTYPE svg PUBLIC "-//W3C//DTD SVG 1.1//EN"
 "http://www.w3.org/Graphics/SVG/1.1/DTD/svg11.dtd">
<!-- Generated by graphviz version 12.2.1 (20241206.2353)
 -->
<!-- Title: G Pages: 1 -->
<svg width="1272pt" height="702pt"
 viewBox="0.00 0.00 1271.92 702.22" xmlns="http://www.w3.org/2000/svg" xmlns:xlink="http://www.w3.org/1999/xlink">
<g id="graph0" class="graph" transform="scale(1 1) rotate(0) translate(4 698.22)">
<title>G</title><style>.edge>path:hover{stroke-width:8}</style>
<polygon fill="white" stroke="none" points="-4,4 -4,-698.22 1267.92,-698.22 1267.92,4 -4,4"/>
<!-- api -->
<g id="node1" class="node">
<title>api</title><style>.edge>path:hover{stroke-width:8}</style>
<ellipse fill="#b65353" stroke="black" cx="310.48" cy="-127" rx="27" ry="18"/>
<text text-anchor="middle" x="310.48" y="-123.5" font-family="Helvetica,sans-Serif" font-size="10.00" fill="#ffffff">api</text>
</g>
<!-- main_py -->
<g id="node21" class="node">
<title>main_py</title><style>.edge>path:hover{stroke-width:8}</style>
<ellipse fill="#3c7171" stroke="black" cx="481.48" cy="-18" rx="30.37" ry="18"/>
<text text-anchor="middle" x="481.48" y="-14.5" font-family="Helvetica,sans-Serif" font-size="10.00" fill="#ffffff">main.py</text>
</g>
<!-- api&#45;&gt;main_py -->
<g id="edge1" class="edge">
<title>api&#45;&gt;main_py</title><style>.edge>path:hover{stroke-width:8}</style>
<path fill="none" stroke="black" d="M332.42,-116.32C338.54,-113.78 345.22,-111.16 351.48,-109 408.17,-89.48 468.25,-131.47 481.48,-73"/>
<path fill="none" stroke="black" d="M481.48,-72C483.24,-64.25 483.81,-55.7 483.79,-47.77"/>
<polygon fill="#b65353" stroke="black" points="487.3,-47.79 483.46,-37.91 480.3,-48.03 487.3,-47.79"/>
</g>
<!-- api_data -->
<g id="node2" class="node">
<title>api_data</title><style>.edge>path:hover{stroke-width:8}</style>
<ellipse fill="#883a3a" stroke="black" cx="423.48" cy="-127" rx="30.37" ry="18"/>
<text text-anchor="middle" x="423.48" y="-123.5" font-family="Helvetica,sans-Serif" font-size="10.00" fill="#ffffff">api.data</text>
</g>
<!-- api_data&#45;&gt;main_py -->
<g id="edge2" class="edge">
<title>api_data&#45;&gt;main_py</title><style>.edge>path:hover{stroke-width:8}</style>
<path fill="none" stroke="black" d="M446.13,-114.5C460.56,-105.53 477.3,-91.49 481.48,-73"/>
</g>
<!-- api_status -->
<g id="node3" class="node">
<title>api_status</title><style>.edge>path:hover{stroke-width:8}</style>
<ellipse fill="#ac4949" stroke="black" cx="544.48" cy="-127" rx="35.33" ry="18"/>
<text text-anchor="middle" x="544.48" y="-123.5" font-family="Helvetica,sans-Serif" font-size="10.00" fill="#ffffff">api.status</text>
</g>
<!-- api_status&#45;&gt;main_py -->
<g id="edge3" class="edge">
<title>api_status&#45;&gt;main_py</title><style>.edge>path:hover{stroke-width:8}</style>
<path fill="none" stroke="black" d="M516.25,-115.97C497.44,-107.33 476.94,-93.07 481.48,-73"/>
</g>
<!-- core -->
<g id="node4" class="node">
<title>core</title><style>.edge>path:hover{stroke-width:8}</style>
<ellipse fill="#dbb02f" stroke="black" cx="38.48" cy="-428.59" rx="27" ry="18"/>
<text text-anchor="middle" x="38.48" y="-425.09" font-family="Helvetica,sans-Serif" font-size="10.00" fill="#000000">core</text>
</g>
<!-- core&#45;&gt;api_data -->
<g id="edge4" class="edge">
<title>core&#45;&gt;api_data</title><style>.edge>path:hover{stroke-width:8}</style>
<path fill="none" stroke="black" d="M367.48,-181C379.48,-172.15 391.64,-160.97 401.55,-151.16"/>
<polygon fill="#dbb02f" stroke="black" points="404.02,-153.64 408.55,-144.06 399.04,-148.72 404.02,-153.64"/>
</g>
<!-- core&#45;&gt;main_py -->
<g id="edge5" class="edge">
<title>core&#45;&gt;main_py</title><style>.edge>path:hover{stroke-width:8}</style>
<path fill="none" stroke="black" d="M1.48,-329.37C10.67,-280 -16.17,-252.32 20.48,-218 77.07,-165.01 305.09,-228.02 367.48,-182"/>
<path fill="none" stroke="black" d="M26.51,-412.08C13.57,-393.46 -4.45,-361.03 1.48,-331.37"/>
<path fill="none" stroke="black" d="M367.48,-181C393.91,-161.43 362.71,-133.64 384.48,-109 414.93,-74.54 471.33,-117.85 481.48,-73"/>
</g>
<!-- services_data_service -->
<g id="node24" class="node">
<title>services_data_service</title><style>.edge>path:hover{stroke-width:8}</style>
<ellipse fill="#7546a4" stroke="black" cx="161.48" cy="-240.63" rx="50.56" ry="22.63"/>
<text text-anchor="middle" x="161.48" y="-243.13" font-family="Helvetica,sans-Serif" font-size="10.00" fill="#ffffff">services.</text>
<text text-anchor="middle" x="161.48" y="-231.13" font-family="Helvetica,sans-Serif" font-size="10.00" fill="#ffffff">data_service</text>
</g>
<!-- core&#45;&gt;services_data_service -->
<g id="edge6" class="edge">
<title>core&#45;&gt;services_data_service</title><style>.edge>path:hover{stroke-width:8}</style>
<path fill="none" stroke="black" d="M1.48,-329.37C3.88,-316.48 70.04,-283.59 116.52,-261.94"/>
<polygon fill="#dbb02f" stroke="black" points="117.71,-265.25 125.32,-257.88 114.77,-258.9 117.71,-265.25"/>
</g>
<!-- services_enhanced_download -->
<g id="node25" class="node">
<title>services_enhanced_download</title><style>.edge>path:hover{stroke-width:8}</style>
<ellipse fill="#7546a4" stroke="black" cx="303.48" cy="-240.63" rx="73.89" ry="22.63"/>
<text text-anchor="middle" x="303.48" y="-243.13" font-family="Helvetica,sans-Serif" font-size="10.00" fill="#ffffff">services.</text>
<text text-anchor="middle" x="303.48" y="-231.13" font-family="Helvetica,sans-Serif" font-size="10.00" fill="#ffffff">enhanced_download</text>
</g>
<!-- core&#45;&gt;services_enhanced_download -->
<g id="edge7" class="edge">
<title>core&#45;&gt;services_enhanced_download</title><style>.edge>path:hover{stroke-width:8}</style>
<path fill="none" stroke="black" d="M199.48,-329.37C209.84,-315.74 211.09,-311.06 223.48,-299.25 235.35,-287.95 249.54,-277.04 262.64,-267.81"/>
<polygon fill="#dbb02f" stroke="black" points="264.45,-270.82 270.7,-262.26 260.48,-265.05 264.45,-270.82"/>
<path fill="none" stroke="black" d="M60.94,-418.21C94.71,-403.86 156.6,-376.56 175.48,-361.48 188.86,-350.8 189.13,-344.99 199.48,-331.37"/>
</g>
<!-- core_config -->
<g id="node5" class="node">
<title>core_config</title><style>.edge>path:hover{stroke-width:8}</style>
<ellipse fill="#d9ac26" stroke="black" cx="259.48" cy="-428.59" rx="38.49" ry="18"/>
<text text-anchor="middle" x="259.48" y="-425.09" font-family="Helvetica,sans-Serif" font-size="10.00" fill="#000000">core.config</text>
</g>
<!-- core_config&#45;&gt;api_data -->
<g id="edge8" class="edge">
<title>core_config&#45;&gt;api_data</title><style>.edge>path:hover{stroke-width:8}</style>
<path fill="none" stroke="black" d="M443.48,-239.63C455,-211.19 386.77,-206.31 405.48,-182"/>
<path fill="none" stroke="black" d="M259.15,-410.47C259.57,-383.15 264.49,-329.68 294.48,-299.25 344.33,-248.69 416.84,-307.44 443.48,-241.63"/>
</g>
<!-- core_config&#45;&gt;main_py -->
<g id="edge9" class="edge">
<title>core_config&#45;&gt;main_py</title><style>.edge>path:hover{stroke-width:8}</style>
<path fill="none" stroke="black" d="M443.48,-239.63C453.19,-215.29 477.11,-153.84 481.48,-128"/>
<path fill="none" stroke="black" d="M481.48,-126C483.21,-102.51 476.28,-95.97 481.48,-73"/>
</g>
<!-- core_config&#45;&gt;services_data_service -->
<g id="edge10" class="edge">
<title>core_config&#45;&gt;services_data_service</title><style>.edge>path:hover{stroke-width:8}</style>
<path fill="none" stroke="black" d="M240,-412.71C212.86,-391.34 166.41,-352.26 161.48,-331.37"/>
</g>
<!-- core_config&#45;&gt;services_enhanced_download -->
<g id="edge11" class="edge">
<title>core_config&#45;&gt;services_enhanced_download</title><style>.edge>path:hover{stroke-width:8}</style>
<path fill="none" stroke="black" d="M239,-413.03C214.33,-393.69 178.64,-358.8 199.48,-331.37"/>
</g>
<!-- core_models -->
<g id="node6" class="node">
<title>core_models</title><style>.edge>path:hover{stroke-width:8}</style>
<ellipse fill="#cea93b" stroke="black" cx="161.48" cy="-428.59" rx="41.64" ry="18"/>
<text text-anchor="middle" x="161.48" y="-425.09" font-family="Helvetica,sans-Serif" font-size="10.00" fill="#000000">core.models</text>
</g>
<!-- core_models&#45;&gt;api_data -->
<g id="edge12" class="edge">
<title>core_models&#45;&gt;api_data</title><style>.edge>path:hover{stroke-width:8}</style>
<path fill="none" stroke="black" d="M174.61,-411.09C185.18,-397.76 200.38,-378.48 213.48,-361.48 234.64,-334.03 231.9,-318.86 260.48,-299.25 308.52,-266.32 346.31,-305.43 386.48,-263.25 412.06,-236.4 382.86,-211.39 405.48,-182"/>
</g>
<!-- core_models&#45;&gt;services_data_service -->
<g id="edge13" class="edge">
<title>core_models&#45;&gt;services_data_service</title><style>.edge>path:hover{stroke-width:8}</style>
<path fill="none" stroke="black" d="M163.84,-410.28C165.96,-390.81 167.84,-358.36 161.48,-331.37"/>
<path fill="none" stroke="black" d="M161.48,-329.37C157.32,-311.71 157.03,-291.49 157.92,-274.92"/>
<polygon fill="#cea93b" stroke="black" points="161.4,-275.32 158.62,-265.09 154.41,-274.82 161.4,-275.32"/>
</g>
<!-- core_models&#45;&gt;services_enhanced_download -->
<g id="edge14" class="edge">
<title>core_models&#45;&gt;services_enhanced_download</title><style>.edge>path:hover{stroke-width:8}</style>
<path fill="none" stroke="black" d="M165.3,-410.18C170.44,-389.73 181.12,-355.54 199.48,-331.37"/>
</g>
<!-- dotenv -->
<g id="node7" class="node">
<title>dotenv</title><style>.edge>path:hover{stroke-width:8}</style>
<ellipse fill="#85b653" stroke="black" cx="259.48" cy="-599.59" rx="27.21" ry="18"/>
<text text-anchor="middle" x="259.48" y="-596.09" font-family="Helvetica,sans-Serif" font-size="10.00" fill="#000000">dotenv</text>
</g>
<!-- dotenv&#45;&gt;core_config -->
<g id="edge15" class="edge">
<title>dotenv&#45;&gt;core_config</title><style>.edge>path:hover{stroke-width:8}</style>
<path fill="none" stroke="black" d="M259.48,-581.14C259.48,-552.02 259.48,-493.25 259.48,-458.07"/>
<polygon fill="#85b653" stroke="black" points="262.98,-458.21 259.48,-448.21 255.98,-458.21 262.98,-458.21"/>
</g>
<!-- fastapi -->
<g id="node8" class="node">
<title>fastapi</title><style>.edge>path:hover{stroke-width:8}</style>
<polygon fill="blue" stroke="black" points="540.48,-258.63 486.48,-258.63 486.48,-222.63 540.48,-222.63 540.48,-258.63"/>
<text text-anchor="middle" x="513.48" y="-237.13" font-family="Helvetica,sans-Serif" font-size="10.00" fill="white">fastapi</text>
</g>
<!-- fastapi&#45;&gt;api_data -->
<g id="edge16" class="edge">
<title>fastapi&#45;&gt;api_data</title><style>.edge>path:hover{stroke-width:8}</style>
<path fill="none" stroke="black" d="M486.19,-228.18C452.36,-213.59 399.81,-189.37 405.48,-182"/>
</g>
<!-- fastapi&#45;&gt;api_status -->
<g id="edge17" class="edge">
<title>fastapi&#45;&gt;api_status</title><style>.edge>path:hover{stroke-width:8}</style>
<path fill="none" stroke="black" d="M481.48,-181C481.71,-165.01 493.76,-152.88 507.27,-144.28"/>
<polygon fill="blue" stroke="black" points="508.92,-147.37 515.89,-139.39 505.47,-141.28 508.92,-147.37"/>
</g>
<!-- fastapi&#45;&gt;main_py -->
<g id="edge18" class="edge">
<title>fastapi&#45;&gt;main_py</title><style>.edge>path:hover{stroke-width:8}</style>
<path fill="none" stroke="black" d="M481.48,-181C481.81,-157.45 477.55,-151.23 481.48,-128"/>
<path fill="none" stroke="black" d="M497.71,-222.3C489.53,-211.5 481.28,-196.88 481.48,-182"/>
</g>
<!-- fastapi_applications -->
<g id="node9" class="node">
<title>fastapi_applications</title><style>.edge>path:hover{stroke-width:8}</style>
<polygon fill="blue" stroke="black" points="863.36,-348.37 795.61,-348.37 795.61,-312.37 863.36,-312.37 863.36,-348.37"/>
<text text-anchor="middle" x="829.48" y="-332.87" font-family="Helvetica,sans-Serif" font-size="10.00" fill="white">fastapi.</text>
<text text-anchor="middle" x="829.48" y="-320.87" font-family="Helvetica,sans-Serif" font-size="10.00" fill="white">applications</text>
</g>
<!-- fastapi_applications&#45;&gt;fastapi -->
<g id="edge19" class="edge">
<title>fastapi_applications&#45;&gt;fastapi</title><style>.edge>path:hover{stroke-width:8}</style>
<path fill="none" stroke="black" d="M806.07,-312.02C798.55,-307.2 789.96,-302.42 781.48,-299.25 687.06,-264.03 650.14,-296.41 550.83,-262.91"/>
<polygon fill="blue" stroke="black" points="552.07,-259.64 541.48,-259.61 549.74,-266.24 552.07,-259.64"/>
</g>
<!-- fastapi_background -->
<g id="node10" class="node">
<title>fastapi_background</title><style>.edge>path:hover{stroke-width:8}</style>
<ellipse fill="#4cb366" stroke="black" cx="454.48" cy="-330.37" rx="46.85" ry="22.63"/>
<text text-anchor="middle" x="454.48" y="-332.87" font-family="Helvetica,sans-Serif" font-size="10.00" fill="#000000">fastapi.</text>
<text text-anchor="middle" x="454.48" y="-320.87" font-family="Helvetica,sans-Serif" font-size="10.00" fill="#000000">background</text>
</g>
<!-- fastapi_background&#45;&gt;fastapi -->
<g id="edge20" class="edge">
<title>fastapi_background&#45;&gt;fastapi</title><style>.edge>path:hover{stroke-width:8}</style>
<path fill="none" stroke="black" d="M468.47,-308.57C476.56,-296.54 486.83,-281.27 495.52,-268.35"/>
<polygon fill="#4cb366" stroke="black" points="498.27,-270.53 500.94,-260.28 492.46,-266.62 498.27,-270.53"/>
</g>
<!-- fastapi_datastructures -->
<g id="node11" class="node">
<title>fastapi_datastructures</title><style>.edge>path:hover{stroke-width:8}</style>
<polygon fill="blue" stroke="black" points="717.61,-536.33 639.36,-536.33 639.36,-500.33 717.61,-500.33 717.61,-536.33"/>
<text text-anchor="middle" x="678.48" y="-520.83" font-family="Helvetica,sans-Serif" font-size="10.00" fill="white">fastapi.</text>
<text text-anchor="middle" x="678.48" y="-508.83" font-family="Helvetica,sans-Serif" font-size="10.00" fill="white">datastructures</text>
</g>
<!-- fastapi_datastructures&#45;&gt;fastapi -->
<g id="edge21" class="edge">
<title>fastapi_datastructures&#45;&gt;fastapi</title><style>.edge>path:hover{stroke-width:8}</style>
<path fill="none" stroke="black" d="M767.48,-329.37C738.13,-236.09 650.52,-294.59 550.72,-262.76"/>
<polygon fill="blue" stroke="black" points="552.1,-259.53 541.51,-259.53 549.79,-266.14 552.1,-259.53"/>
<path fill="none" stroke="black" d="M665.01,-499.89C647.6,-475.05 622.03,-429.02 644.48,-397.48 680.48,-346.92 786.11,-390.57 767.48,-331.37"/>
</g>
<!-- fastapi_datastructures&#45;&gt;fastapi_applications -->
<g id="edge22" class="edge">
<title>fastapi_datastructures&#45;&gt;fastapi_applications</title><style>.edge>path:hover{stroke-width:8}</style>
<path fill="none" stroke="black" d="M717.95,-500.77C755.44,-484.93 806.67,-462.99 810.48,-459.71 822.49,-449.39 829.26,-445.42 829.48,-429.59"/>
<path fill="none" stroke="black" d="M829.48,-427.59C829.8,-404.88 829.78,-379.14 829.69,-360"/>
<polygon fill="blue" stroke="black" points="833.19,-360.25 829.64,-350.27 826.19,-360.28 833.19,-360.25"/>
</g>
<!-- fastapi_routing -->
<g id="node18" class="node">
<title>fastapi_routing</title><style>.edge>path:hover{stroke-width:8}</style>
<polygon fill="blue" stroke="black" points="801.48,-446.59 747.48,-446.59 747.48,-410.59 801.48,-410.59 801.48,-446.59"/>
<text text-anchor="middle" x="774.48" y="-431.09" font-family="Helvetica,sans-Serif" font-size="10.00" fill="white">fastapi.</text>
<text text-anchor="middle" x="774.48" y="-419.09" font-family="Helvetica,sans-Serif" font-size="10.00" fill="white">routing</text>
</g>
<!-- fastapi_datastructures&#45;&gt;fastapi_routing -->
<g id="edge23" class="edge">
<title>fastapi_datastructures&#45;&gt;fastapi_routing</title><style>.edge>path:hover{stroke-width:8}</style>
<path fill="none" stroke="black" d="M697.45,-500C711.65,-487.02 731.28,-469.08 747.17,-454.55"/>
<polygon fill="blue" stroke="black" points="749.42,-457.24 754.44,-447.91 744.7,-452.08 749.42,-457.24"/>
</g>
<!-- fastapi_exceptions -->
<g id="node12" class="node">
<title>fastapi_exceptions</title><style>.edge>path:hover{stroke-width:8}</style>
<ellipse fill="#33cc59" stroke="black" cx="818.48" cy="-518.33" rx="44.72" ry="22.63"/>
<text text-anchor="middle" x="818.48" y="-520.83" font-family="Helvetica,sans-Serif" font-size="10.00" fill="#000000">fastapi.</text>
<text text-anchor="middle" x="818.48" y="-508.83" font-family="Helvetica,sans-Serif" font-size="10.00" fill="#000000">exceptions</text>
</g>
<!-- fastapi_exceptions&#45;&gt;fastapi -->
<g id="edge24" class="edge">
<title>fastapi_exceptions&#45;&gt;fastapi</title><style>.edge>path:hover{stroke-width:8}</style>
<path fill="none" stroke="black" d="M891.48,-427.59C902.55,-371 913.98,-339.29 872.48,-299.25 822.79,-251.32 635.42,-283.28 550.62,-262.28"/>
<polygon fill="#33cc59" stroke="black" points="551.63,-258.93 541.05,-259.47 549.65,-265.65 551.63,-258.93"/>
<path fill="none" stroke="black" d="M843.45,-499.41C862.55,-483.64 886.46,-458.69 891.48,-429.59"/>
</g>
<!-- fastapi_exceptions&#45;&gt;fastapi_applications -->
<g id="edge25" class="edge">
<title>fastapi_exceptions&#45;&gt;fastapi_applications</title><style>.edge>path:hover{stroke-width:8}</style>
<path fill="none" stroke="black" d="M822.6,-495.43C825.59,-477.74 829.17,-452.16 829.48,-429.59"/>
</g>
<!-- fastapi_exceptions&#45;&gt;fastapi_routing -->
<g id="edge26" class="edge">
<title>fastapi_exceptions&#45;&gt;fastapi_routing</title><style>.edge>path:hover{stroke-width:8}</style>
<path fill="none" stroke="black" d="M807.83,-496.09C801.91,-484.29 794.48,-469.47 788.14,-456.82"/>
<polygon fill="#33cc59" stroke="black" points="791.41,-455.54 783.8,-448.17 785.15,-458.67 791.41,-455.54"/>
</g>
<!-- fastapi_middleware -->
<g id="node13" class="node">
<title>fastapi_middleware</title><style>.edge>path:hover{stroke-width:8}</style>
<ellipse fill="#49ac62" stroke="black" cx="1065.48" cy="-428.59" rx="46.32" ry="22.63"/>
<text text-anchor="middle" x="1065.48" y="-431.09" font-family="Helvetica,sans-Serif" font-size="10.00" fill="#000000">fastapi.</text>
<text text-anchor="middle" x="1065.48" y="-419.09" font-family="Helvetica,sans-Serif" font-size="10.00" fill="#000000">middleware</text>
</g>
<!-- fastapi_middleware&#45;&gt;main_py -->
<g id="edge27" class="edge">
<title>fastapi_middleware&#45;&gt;main_py</title><style>.edge>path:hover{stroke-width:8}</style>
<path fill="none" stroke="black" d="M1058.93,-405.99C1053.95,-384.98 1050.26,-353.13 1065.48,-331.37"/>
</g>
<!-- fastapi_middleware_cors -->
<g id="node14" class="node">
<title>fastapi_middleware_cors</title><style>.edge>path:hover{stroke-width:8}</style>
<ellipse fill="#46a45e" stroke="black" cx="1141.48" cy="-330.37" rx="48.44" ry="31.11"/>
<text text-anchor="middle" x="1141.48" y="-338.87" font-family="Helvetica,sans-Serif" font-size="10.00" fill="#000000">fastapi.</text>
<text text-anchor="middle" x="1141.48" y="-326.87" font-family="Helvetica,sans-Serif" font-size="10.00" fill="#000000">middleware.</text>
<text text-anchor="middle" x="1141.48" y="-314.87" font-family="Helvetica,sans-Serif" font-size="10.00" fill="#000000">cors</text>
</g>
<!-- fastapi_middleware_cors&#45;&gt;main_py -->
<g id="edge28" class="edge">
<title>fastapi_middleware_cors&#45;&gt;main_py</title><style>.edge>path:hover{stroke-width:8}</style>
<path fill="none" stroke="black" d="M1148.04,-299.34C1150.36,-281.61 1150.5,-259.26 1141.48,-241.63"/>
</g>
<!-- fastapi_param_functions -->
<g id="node15" class="node">
<title>fastapi_param_functions</title><style>.edge>path:hover{stroke-width:8}</style>
<polygon fill="blue" stroke="black" points="739.48,-348.37 651.48,-348.37 651.48,-312.37 739.48,-312.37 739.48,-348.37"/>
<text text-anchor="middle" x="695.48" y="-332.87" font-family="Helvetica,sans-Serif" font-size="10.00" fill="white">fastapi.</text>
<text text-anchor="middle" x="695.48" y="-320.87" font-family="Helvetica,sans-Serif" font-size="10.00" fill="white">param_functions</text>
</g>
<!-- fastapi_param_functions&#45;&gt;fastapi -->
<g id="edge29" class="edge">
<title>fastapi_param_functions&#45;&gt;fastapi</title><style>.edge>path:hover{stroke-width:8}</style>
<path fill="none" stroke="black" d="M666.73,-312.01C658.98,-307.62 650.52,-303.07 642.48,-299.25 605.41,-281.67 591.39,-282.49 550.98,-263.6"/>
<polygon fill="blue" stroke="black" points="552.62,-260.5 542.09,-259.31 549.58,-266.81 552.62,-260.5"/>
</g>
<!-- fastapi_requests -->
<g id="node16" class="node">
<title>fastapi_requests</title><style>.edge>path:hover{stroke-width:8}</style>
<ellipse fill="#4cb366" stroke="black" cx="595.48" cy="-330.37" rx="37.83" ry="22.63"/>
<text text-anchor="middle" x="595.48" y="-332.87" font-family="Helvetica,sans-Serif" font-size="10.00" fill="#000000">fastapi.</text>
<text text-anchor="middle" x="595.48" y="-320.87" font-family="Helvetica,sans-Serif" font-size="10.00" fill="#000000">requests</text>
</g>
<!-- fastapi_requests&#45;&gt;fastapi -->
<g id="edge30" class="edge">
<title>fastapi_requests&#45;&gt;fastapi</title><style>.edge>path:hover{stroke-width:8}</style>
<path fill="none" stroke="black" d="M577.69,-310.33C565.83,-297.64 550.11,-280.82 537.2,-267"/>
<polygon fill="#4cb366" stroke="black" points="539.99,-264.87 530.61,-259.95 534.88,-269.65 539.99,-264.87"/>
</g>
<!-- fastapi_responses -->
<g id="node17" class="node">
<title>fastapi_responses</title><style>.edge>path:hover{stroke-width:8}</style>
<ellipse fill="#4cb366" stroke="black" cx="346.48" cy="-330.37" rx="43.13" ry="22.63"/>
<text text-anchor="middle" x="346.48" y="-332.87" font-family="Helvetica,sans-Serif" font-size="10.00" fill="#000000">fastapi.</text>
<text text-anchor="middle" x="346.48" y="-320.87" font-family="Helvetica,sans-Serif" font-size="10.00" fill="#000000">responses</text>
</g>
<!-- fastapi_responses&#45;&gt;fastapi -->
<g id="edge31" class="edge">
<title>fastapi_responses&#45;&gt;fastapi</title><style>.edge>path:hover{stroke-width:8}</style>
<path fill="none" stroke="black" d="M374.38,-312.8C382.13,-308.31 390.59,-303.51 398.48,-299.25 424.1,-285.43 453.45,-270.75 476.09,-259.66"/>
<polygon fill="#4cb366" stroke="black" points="477.48,-262.87 484.93,-255.34 474.41,-256.58 477.48,-262.87"/>
</g>
<!-- fastapi_routing&#45;&gt;fastapi -->
<g id="edge32" class="edge">
<title>fastapi_routing&#45;&gt;fastapi</title><style>.edge>path:hover{stroke-width:8}</style>
<path fill="none" stroke="black" d="M775.59,-410.11C776.3,-390.48 775.83,-357.89 767.48,-331.37"/>
</g>
<!-- fastapi_routing&#45;&gt;fastapi_applications -->
<g id="edge33" class="edge">
<title>fastapi_routing&#45;&gt;fastapi_applications</title><style>.edge>path:hover{stroke-width:8}</style>
<path fill="none" stroke="black" d="M784.32,-410.39C792.56,-395.97 804.46,-375.14 813.99,-358.48"/>
<polygon fill="blue" stroke="black" points="816.88,-360.48 818.8,-350.06 810.8,-357.01 816.88,-360.48"/>
</g>
<!-- fastapi_staticfiles -->
<g id="node19" class="node">
<title>fastapi_staticfiles</title><style>.edge>path:hover{stroke-width:8}</style>
<ellipse fill="#49ac62" stroke="black" cx="960.48" cy="-518.33" rx="41.01" ry="22.63"/>
<text text-anchor="middle" x="960.48" y="-520.83" font-family="Helvetica,sans-Serif" font-size="10.00" fill="#000000">fastapi.</text>
<text text-anchor="middle" x="960.48" y="-508.83" font-family="Helvetica,sans-Serif" font-size="10.00" fill="#000000">staticfiles</text>
</g>
<!-- fastapi_staticfiles&#45;&gt;main_py -->
<g id="edge34" class="edge">
<title>fastapi_staticfiles&#45;&gt;main_py</title><style>.edge>path:hover{stroke-width:8}</style>
<path fill="none" stroke="black" d="M963.82,-495.64C968.41,-470.55 978.38,-428.68 997.48,-397.48 1019.5,-361.53 1041.32,-365.91 1065.48,-331.37"/>
<path fill="none" stroke="black" d="M1065.48,-329.37C1073.69,-315.84 1074.64,-311.64 1084.48,-299.25 1106.89,-271.05 1157.89,-273.7 1141.48,-241.63"/>
<path fill="none" stroke="black" d="M1141.48,-239.63C1132.87,-222.79 477.66,-91.52 481.48,-73"/>
</g>
<!-- fastapi_websockets -->
<g id="node20" class="node">
<title>fastapi_websockets</title><style>.edge>path:hover{stroke-width:8}</style>
<ellipse fill="#4cb366" stroke="black" cx="535.48" cy="-518.33" rx="48.44" ry="22.63"/>
<text text-anchor="middle" x="535.48" y="-520.83" font-family="Helvetica,sans-Serif" font-size="10.00" fill="#000000">fastapi.</text>
<text text-anchor="middle" x="535.48" y="-508.83" font-family="Helvetica,sans-Serif" font-size="10.00" fill="#000000">websockets</text>
</g>
<!-- fastapi_websockets&#45;&gt;fastapi -->
<g id="edge35" class="edge">
<title>fastapi_websockets&#45;&gt;fastapi</title><style>.edge>path:hover{stroke-width:8}</style>
<path fill="none" stroke="black" d="M533.72,-495.24C529.77,-445.7 520.2,-325.78 515.79,-270.46"/>
<polygon fill="#4cb366" stroke="black" points="519.28,-270.28 515,-260.59 512.3,-270.83 519.28,-270.28"/>
</g>
<!-- psutil -->
<g id="node22" class="node">
<title>psutil</title><style>.edge>path:hover{stroke-width:8}</style>
<ellipse fill="#405fc0" stroke="black" cx="585.48" cy="-240.63" rx="27" ry="18"/>
<text text-anchor="middle" x="585.48" y="-237.13" font-family="Helvetica,sans-Serif" font-size="10.00" fill="#ffffff">psutil</text>
</g>
<!-- psutil&#45;&gt;api_status -->
<g id="edge36" class="edge">
<title>psutil&#45;&gt;api_status</title><style>.edge>path:hover{stroke-width:8}</style>
<path fill="none" stroke="black" d="M579.26,-222.67C572.73,-204.89 562.35,-176.65 554.64,-155.64"/>
<polygon fill="#405fc0" stroke="black" points="558.02,-154.71 551.29,-146.53 551.45,-157.13 558.02,-154.71"/>
</g>
<!-- services -->
<g id="node23" class="node">
<title>services</title><style>.edge>path:hover{stroke-width:8}</style>
<ellipse fill="#8553b6" stroke="black" cx="61.48" cy="-240.63" rx="31.72" ry="18"/>
<text text-anchor="middle" x="61.48" y="-237.13" font-family="Helvetica,sans-Serif" font-size="10.00" fill="#ffffff">services</text>
</g>
<!-- services&#45;&gt;api_data -->
<g id="edge37" class="edge">
<title>services&#45;&gt;api_data</title><style>.edge>path:hover{stroke-width:8}</style>
<path fill="none" stroke="black" d="M405.48,-181C411.09,-173.72 415.01,-164.58 417.72,-155.96"/>
<polygon fill="#8553b6" stroke="black" points="421.03,-157.14 420.25,-146.58 414.27,-155.32 421.03,-157.14"/>
<path fill="none" stroke="black" d="M82,-226.62C88.07,-223.31 94.86,-220.1 101.48,-218 166.34,-197.46 363.99,-235.91 405.48,-182"/>
</g>
<!-- services_data_service&#45;&gt;api_data -->
<g id="edge38" class="edge">
<title>services_data_service&#45;&gt;api_data</title><style>.edge>path:hover{stroke-width:8}</style>
<path fill="none" stroke="black" d="M198.65,-224.99C205.83,-222.45 213.34,-219.99 220.48,-218 301.17,-195.51 354.39,-248.38 405.48,-182"/>
</g>
<!-- services_enhanced_download&#45;&gt;api_data -->
<g id="edge39" class="edge">
<title>services_enhanced_download&#45;&gt;api_data</title><style>.edge>path:hover{stroke-width:8}</style>
<path fill="none" stroke="black" d="M350.29,-222.82C369.95,-213.58 391.47,-200.21 405.48,-182"/>
</g>
<!-- starlette -->
<g id="node26" class="node">
<title>starlette</title><style>.edge>path:hover{stroke-width:8}</style>
<ellipse fill="#f910bf" stroke="black" cx="942.48" cy="-676.22" rx="30.82" ry="18"/>
<text text-anchor="middle" x="942.48" y="-672.72" font-family="Helvetica,sans-Serif" font-size="10.00" fill="#ffffff">starlette</text>
</g>
<!-- starlette&#45;&gt;fastapi -->
<g id="edge40" class="edge">
<title>starlette&#45;&gt;fastapi</title><style>.edge>path:hover{stroke-width:8}</style>
<path fill="none" stroke="black" d="M745.48,-598.59C701.78,-554.63 834.63,-590.04 872.48,-540.96 903.15,-501.2 882.94,-479.07 891.48,-429.59"/>
</g>
<!-- starlette&#45;&gt;fastapi_applications -->
<g id="edge41" class="edge">
<title>starlette&#45;&gt;fastapi_applications</title><style>.edge>path:hover{stroke-width:8}</style>
<path fill="none" stroke="black" d="M745.48,-598.59C712.34,-565.97 740.39,-535.48 764.48,-495.71 785.84,-460.46 828.91,-470.8 829.48,-429.59"/>
</g>
<!-- starlette&#45;&gt;fastapi_background -->
<g id="edge42" class="edge">
<title>starlette&#45;&gt;fastapi_background</title><style>.edge>path:hover{stroke-width:8}</style>
<path fill="none" stroke="black" d="M454.48,-427.59C448.87,-407.15 448.82,-383.32 450.2,-364.49"/>
<polygon fill="#f910bf" stroke="black" points="453.67,-364.99 451.1,-354.71 446.7,-364.35 453.67,-364.99"/>
</g>
<!-- starlette&#45;&gt;fastapi_datastructures -->
<g id="edge43" class="edge">
<title>starlette&#45;&gt;fastapi_datastructures</title><style>.edge>path:hover{stroke-width:8}</style>
<path fill="none" stroke="black" d="M745.48,-598.59C728.63,-582 711.45,-561.59 698.7,-545.64"/>
<polygon fill="#f910bf" stroke="black" points="701.63,-543.69 692.69,-538.01 696.13,-548.03 701.63,-543.69"/>
</g>
<!-- starlette&#45;&gt;fastapi_exceptions -->
<g id="edge44" class="edge">
<title>starlette&#45;&gt;fastapi_exceptions</title><style>.edge>path:hover{stroke-width:8}</style>
<path fill="none" stroke="black" d="M745.48,-598.59C726.33,-579.74 751.66,-557.09 777.58,-540.84"/>
<polygon fill="#f910bf" stroke="black" points="779.36,-543.85 786.15,-535.72 775.77,-537.84 779.36,-543.85"/>
</g>
<!-- starlette&#45;&gt;fastapi_middleware -->
<g id="edge45" class="edge">
<title>starlette&#45;&gt;fastapi_middleware</title><style>.edge>path:hover{stroke-width:8}</style>
<path fill="none" stroke="black" d="M1139.48,-517.33C1134.56,-492.47 1116.26,-470.66 1099.1,-455"/>
<polygon fill="#f910bf" stroke="black" points="1101.81,-452.72 1091.97,-448.81 1097.23,-458.01 1101.81,-452.72"/>
<path fill="none" stroke="black" d="M970.38,-668.01C1028.6,-651.2 1156.3,-604.26 1139.48,-519.33"/>
</g>
<!-- starlette&#45;&gt;fastapi_middleware_cors -->
<g id="edge46" class="edge">
<title>starlette&#45;&gt;fastapi_middleware_cors</title><style>.edge>path:hover{stroke-width:8}</style>
<path fill="none" stroke="black" d="M1139.48,-517.33C1140.15,-467.74 1140.73,-410.71 1141.1,-373.02"/>
<polygon fill="#f910bf" stroke="black" points="1144.59,-373.52 1141.19,-363.49 1137.59,-373.45 1144.59,-373.52"/>
</g>
<!-- starlette&#45;&gt;fastapi_requests -->
<g id="edge47" class="edge">
<title>starlette&#45;&gt;fastapi_requests</title><style>.edge>path:hover{stroke-width:8}</style>
<path fill="none" stroke="black" d="M745.48,-598.59C696.35,-549.87 624.1,-587.37 611.48,-519.33"/>
<path fill="none" stroke="black" d="M611.48,-517.33C601.67,-464.43 597.86,-401.93 596.39,-364.53"/>
<polygon fill="#f910bf" stroke="black" points="599.9,-364.69 596.04,-354.82 592.9,-364.94 599.9,-364.69"/>
</g>
<!-- starlette&#45;&gt;fastapi_responses -->
<g id="edge48" class="edge">
<title>starlette&#45;&gt;fastapi_responses</title><style>.edge>path:hover{stroke-width:8}</style>
<path fill="none" stroke="black" d="M912.36,-671.53C869.77,-664.8 791.97,-646.68 745.48,-600.59"/>
<path fill="none" stroke="black" d="M745.48,-598.59C659.27,-513.12 564.31,-626.82 478.48,-540.96 442.69,-505.15 467.89,-478.42 454.48,-429.59"/>
<path fill="none" stroke="black" d="M454.48,-427.59C448.21,-409.14 409.85,-377.7 380.61,-355.79"/>
<polygon fill="#f910bf" stroke="black" points="382.83,-353.08 372.71,-349.95 378.66,-358.71 382.83,-353.08"/>
</g>
<!-- starlette&#45;&gt;fastapi_routing -->
<g id="edge49" class="edge">
<title>starlette&#45;&gt;fastapi_routing</title><style>.edge>path:hover{stroke-width:8}</style>
<path fill="none" stroke="black" d="M611.48,-517.33C609.15,-504.75 619.82,-502.78 630.48,-495.71 672.64,-467.73 694.31,-484.37 738.48,-459.71 741.52,-458.01 744.54,-456.05 747.47,-453.95"/>
<polygon fill="#f910bf" stroke="black" points="749.49,-456.81 755.22,-447.89 745.18,-451.29 749.49,-456.81"/>
</g>
<!-- starlette&#45;&gt;fastapi_staticfiles -->
<g id="edge50" class="edge">
<title>starlette&#45;&gt;fastapi_staticfiles</title><style>.edge>path:hover{stroke-width:8}</style>
<path fill="none" stroke="black" d="M745.48,-598.59C691.61,-545.58 834.75,-567.6 905.48,-540.96 909.31,-539.52 913.28,-538 917.25,-536.47"/>
<polygon fill="#f910bf" stroke="black" points="918.22,-539.85 926.27,-532.96 915.68,-533.32 918.22,-539.85"/>
</g>
<!-- starlette&#45;&gt;fastapi_websockets -->
<g id="edge51" class="edge">
<title>starlette&#45;&gt;fastapi_websockets</title><style>.edge>path:hover{stroke-width:8}</style>
<path fill="none" stroke="black" d="M745.48,-598.59C739.44,-592.64 644.42,-558.1 584.29,-536.63"/>
<polygon fill="#f910bf" stroke="black" points="585.52,-533.35 574.93,-533.29 583.17,-539.94 585.52,-533.35"/>
</g>
<!-- starlette_middleware -->
<g id="node27" class="node">
<title>starlette_middleware</title><style>.edge>path:hover{stroke-width:8}</style>
<ellipse fill="#cc33a6" stroke="black" cx="1065.48" cy="-518.33" rx="46.32" ry="22.63"/>
<text text-anchor="middle" x="1065.48" y="-520.83" font-family="Helvetica,sans-Serif" font-size="10.00" fill="#ffffff">starlette.</text>
<text text-anchor="middle" x="1065.48" y="-508.83" font-family="Helvetica,sans-Serif" font-size="10.00" fill="#ffffff">middleware</text>
</g>
<!-- starlette_middleware&#45;&gt;fastapi_applications -->
<g id="edge52" class="edge">
<title>starlette_middleware&#45;&gt;fastapi_applications</title><style>.edge>path:hover{stroke-width:8}</style>
<path fill="none" stroke="black" d="M1030.78,-503.02C1024.09,-500.45 1017.11,-497.9 1010.48,-495.71 929.18,-468.81 828.29,-515.23 829.48,-429.59"/>
</g>
<!-- starlette_middleware&#45;&gt;fastapi_middleware -->
<g id="edge53" class="edge">
<title>starlette_middleware&#45;&gt;fastapi_middleware</title><style>.edge>path:hover{stroke-width:8}</style>
<path fill="none" stroke="black" d="M1065.48,-495.64C1065.48,-485.81 1065.48,-473.95 1065.48,-463.01"/>
<polygon fill="#cc33a6" stroke="black" points="1068.98,-463.15 1065.48,-453.15 1061.98,-463.16 1068.98,-463.15"/>
</g>
<!-- starlette_middleware&#45;&gt;fastapi_middleware_cors -->
<g id="edge54" class="edge">
<title>starlette_middleware&#45;&gt;fastapi_middleware_cors</title><style>.edge>path:hover{stroke-width:8}</style>
<path fill="none" stroke="black" d="M1040.63,-498.87C1029.13,-488.74 1016.66,-475.11 1010.48,-459.71 1000.2,-434.03 995.99,-421.03 1010.48,-397.48 1011.74,-395.45 1056.44,-373.13 1093.28,-354.97"/>
<polygon fill="#cc33a6" stroke="black" points="1094.63,-358.21 1102.06,-350.65 1091.54,-351.93 1094.63,-358.21"/>
</g>
<!-- starlette_middleware_cors -->
<g id="node28" class="node">
<title>starlette_middleware_cors</title><style>.edge>path:hover{stroke-width:8}</style>
<ellipse fill="#b34c99" stroke="black" cx="1215.48" cy="-428.59" rx="48.44" ry="31.11"/>
<text text-anchor="middle" x="1215.48" y="-437.09" font-family="Helvetica,sans-Serif" font-size="10.00" fill="#ffffff">starlette.</text>
<text text-anchor="middle" x="1215.48" y="-425.09" font-family="Helvetica,sans-Serif" font-size="10.00" fill="#ffffff">middleware.</text>
<text text-anchor="middle" x="1215.48" y="-413.09" font-family="Helvetica,sans-Serif" font-size="10.00" fill="#ffffff">cors</text>
</g>
<!-- starlette_middleware_cors&#45;&gt;fastapi_middleware_cors -->
<g id="edge55" class="edge">
<title>starlette_middleware_cors&#45;&gt;fastapi_middleware_cors</title><style>.edge>path:hover{stroke-width:8}</style>
<path fill="none" stroke="black" d="M1194.48,-400.28C1186.67,-390.12 1177.68,-378.43 1169.35,-367.6"/>
<polygon fill="#b34c99" stroke="black" points="1172.34,-365.75 1163.47,-359.95 1166.79,-370.01 1172.34,-365.75"/>
</g>
<!-- starlette_staticfiles -->
<g id="node29" class="node">
<title>starlette_staticfiles</title><style>.edge>path:hover{stroke-width:8}</style>
<ellipse fill="#b34c99" stroke="black" cx="960.48" cy="-599.59" rx="41.01" ry="22.63"/>
<text text-anchor="middle" x="960.48" y="-602.09" font-family="Helvetica,sans-Serif" font-size="10.00" fill="#ffffff">starlette.</text>
<text text-anchor="middle" x="960.48" y="-590.09" font-family="Helvetica,sans-Serif" font-size="10.00" fill="#ffffff">staticfiles</text>
</g>
<!-- starlette_staticfiles&#45;&gt;fastapi_staticfiles -->
<g id="edge56" class="edge">
<title>starlette_staticfiles&#45;&gt;fastapi_staticfiles</title><style>.edge>path:hover{stroke-width:8}</style>
<path fill="none" stroke="black" d="M960.48,-576.51C960.48,-569.13 960.48,-560.72 960.48,-552.67"/>
<polygon fill="#b34c99" stroke="black" points="963.98,-552.81 960.48,-542.81 956.98,-552.81 963.98,-552.81"/>
</g>
<!-- starlette_status -->
<g id="node30" class="node">
<title>starlette_status</title><style>.edge>path:hover{stroke-width:8}</style>
<ellipse fill="#b6539d" stroke="black" cx="691.48" cy="-428.59" rx="38.36" ry="22.63"/>
<text text-anchor="middle" x="691.48" y="-431.09" font-family="Helvetica,sans-Serif" font-size="10.00" fill="#ffffff">starlette.</text>
<text text-anchor="middle" x="691.48" y="-419.09" font-family="Helvetica,sans-Serif" font-size="10.00" fill="#ffffff">status</text>
</g>
<!-- starlette_status&#45;&gt;fastapi -->
<g id="edge57" class="edge">
<title>starlette_status&#45;&gt;fastapi</title><style>.edge>path:hover{stroke-width:8}</style>
<path fill="none" stroke="black" d="M717.94,-412.15C743.83,-394.79 777.96,-364.67 767.48,-331.37"/>
</g>
</g>
</svg>
